<?xml version='1.0' encoding='UTF-8'?>
<svg width="49mm" height="49mm" version="1.1" xmlns="http://www.w3.org/2000/svg"><rect x="4mm" y="4mm" width="1mm" height="1mm"/><rect x="5mm" y="4mm" width="1mm" height="1mm"/><rect x="6mm" y="4mm" width="1mm" height="1mm"/><rect x="7mm" y="4mm" width="1mm" height="1mm"/><rect x="8mm" y="4mm" width="1mm" height="1mm"/><rect x="9mm" y="4mm" width="1mm" height="1mm"/><rect x="10mm" y="4mm" width="1mm" height="1mm"/><rect x="15mm" y="4mm" width="1mm" height="1mm"/><rect x="16mm" y="4mm" width="1mm" height="1mm"/><rect x="17mm" y="4mm" width="1mm" height="1mm"/><rect x="21mm" y="4mm" width="1mm" height="1mm"/><rect x="22mm" y="4mm" width="1mm" height="1mm"/><rect x="23mm" y="4mm" width="1mm" height="1mm"/><rect x="24mm" y="4mm" width="1mm" height="1mm"/><rect x="25mm" y="4mm" width="1mm" height="1mm"/><rect x="26mm" y="4mm" width="1mm" height="1mm"/><rect x="27mm" y="4mm" width="1mm" height="1mm"/><rect x="30mm" y="4mm" width="1mm" height="1mm"/><rect x="34mm" y="4mm" width="1mm" height="1mm"/><rect x="38mm" y="4mm" width="1mm" height="1mm"/><rect x="39mm" y="4mm" width="1mm" height="1mm"/><rect x="40mm" y="4mm" width="1mm" height="1mm"/><rect x="41mm" y="4mm" width="1mm" height="1mm"/><rect x="42mm" y="4mm" width="1mm" height="1mm"/><rect x="43mm" y="4mm" width="1mm" height="1mm"/><rect x="44mm" y="4mm" width="1mm" height="1mm"/><rect x="4mm" y="5mm" width="1mm" height="1mm"/><rect x="10mm" y="5mm" width="1mm" height="1mm"/><rect x="12mm" y="5mm" width="1mm" height="1mm"/><rect x="13mm" y="5mm" width="1mm" height="1mm"/><rect x="15mm" y="5mm" width="1mm" height="1mm"/><rect x="16mm" y="5mm" width="1mm" height="1mm"/><rect x="17mm" y="5mm" width="1mm" height="1mm"/><rect x="18mm" y="5mm" width="1mm" height="1mm"/><rect x="19mm" y="5mm" width="1mm" height="1mm"/><rect x="20mm" y="5mm" width="1mm" height="1mm"/><rect x="21mm" y="5mm" width="1mm" height="1mm"/><rect x="22mm" y="5mm" width="1mm" height="1mm"/><rect x="24mm" y="5mm" width="1mm" height="1mm"/><rect x="27mm" y="5mm" width="1mm" height="1mm"/><rect x="28mm" y="5mm" width="1mm" height="1mm"/><rect x="29mm" y="5mm" width="1mm" height="1mm"/><rect x="30mm" y="5mm" width="1mm" height="1mm"/><rect x="33mm" y="5mm" width="1mm" height="1mm"/><rect x="34mm" y="5mm" width="1mm" height="1mm"/><rect x="36mm" y="5mm" width="1mm" height="1mm"/><rect x="38mm" y="5mm" width="1mm" height="1mm"/><rect x="44mm" y="5mm" width="1mm" height="1mm"/><rect x="4mm" y="6mm" width="1mm" height="1mm"/><rect x="6mm" y="6mm" width="1mm" height="1mm"/><rect x="7mm" y="6mm" width="1mm" height="1mm"/><rect x="8mm" y="6mm" width="1mm" height="1mm"/><rect x="10mm" y="6mm" width="1mm" height="1mm"/><rect x="12mm" y="6mm" width="1mm" height="1mm"/><rect x="13mm" y="6mm" width="1mm" height="1mm"/><rect x="15mm" y="6mm" width="1mm" height="1mm"/><rect x="16mm" y="6mm" width="1mm" height="1mm"/><rect x="17mm" y="6mm" width="1mm" height="1mm"/><rect x="18mm" y="6mm" width="1mm" height="1mm"/><rect x="20mm" y="6mm" width="1mm" height="1mm"/><rect x="22mm" y="6mm" width="1mm" height="1mm"/><rect x="25mm" y="6mm" width="1mm" height="1mm"/><rect x="26mm" y="6mm" width="1mm" height="1mm"/><rect x="28mm" y="6mm" width="1mm" height="1mm"/><rect x="30mm" y="6mm" width="1mm" height="1mm"/><rect x="33mm" y="6mm" width="1mm" height="1mm"/><rect x="36mm" y="6mm" width="1mm" height="1mm"/><rect x="38mm" y="6mm" width="1mm" height="1mm"/><rect x="40mm" y="6mm" width="1mm" height="1mm"/><rect x="41mm" y="6mm" width="1mm" height="1mm"/><rect x="42mm" y="6mm" width="1mm" height="1mm"/><rect x="44mm" y="6mm" width="1mm" height="1mm"/><rect x="4mm" y="7mm" width="1mm" height="1mm"/><rect x="6mm" y="7mm" width="1mm" height="1mm"/><rect x="7mm" y="7mm" width="1mm" height="1mm"/><rect x="8mm" y="7mm" width="1mm" height="1mm"/><rect x="10mm" y="7mm" width="1mm" height="1mm"/><rect x="12mm" y="7mm" width="1mm" height="1mm"/><rect x="13mm" y="7mm" width="1mm" height="1mm"/><rect x="14mm" y="7mm" width="1mm" height="1mm"/><rect x="15mm" y="7mm" width="1mm" height="1mm"/><rect x="17mm" y="7mm" width="1mm" height="1mm"/><rect x="21mm" y="7mm" width="1mm" height="1mm"/><rect x="22mm" y="7mm" width="1mm" height="1mm"/><rect x="23mm" y="7mm" width="1mm" height="1mm"/><rect x="24mm" y="7mm" width="1mm" height="1mm"/><rect x="25mm" y="7mm" width="1mm" height="1mm"/><rect x="28mm" y="7mm" width="1mm" height="1mm"/><rect x="30mm" y="7mm" width="1mm" height="1mm"/><rect x="38mm" y="7mm" width="1mm" height="1mm"/><rect x="40mm" y="7mm" width="1mm" height="1mm"/><rect x="41mm" y="7mm" width="1mm" height="1mm"/><rect x="42mm" y="7mm" width="1mm" height="1mm"/><rect x="44mm" y="7mm" width="1mm" height="1mm"/><rect x="4mm" y="8mm" width="1mm" height="1mm"/><rect x="6mm" y="8mm" width="1mm" height="1mm"/><rect x="7mm" y="8mm" width="1mm" height="1mm"/><rect x="8mm" y="8mm" width="1mm" height="1mm"/><rect x="10mm" y="8mm" width="1mm" height="1mm"/><rect x="12mm" y="8mm" width="1mm" height="1mm"/><rect x="13mm" y="8mm" width="1mm" height="1mm"/><rect x="14mm" y="8mm" width="1mm" height="1mm"/><rect x="15mm" y="8mm" width="1mm" height="1mm"/><rect x="19mm" y="8mm" width="1mm" height="1mm"/><rect x="22mm" y="8mm" width="1mm" height="1mm"/><rect x="23mm" y="8mm" width="1mm" height="1mm"/><rect x="24mm" y="8mm" width="1mm" height="1mm"/><rect x="25mm" y="8mm" width="1mm" height="1mm"/><rect x="28mm" y="8mm" width="1mm" height="1mm"/><rect x="29mm" y="8mm" width="1mm" height="1mm"/><rect x="30mm" y="8mm" width="1mm" height="1mm"/><rect x="34mm" y="8mm" width="1mm" height="1mm"/><rect x="36mm" y="8mm" width="1mm" height="1mm"/><rect x="38mm" y="8mm" width="1mm" height="1mm"/><rect x="40mm" y="8mm" width="1mm" height="1mm"/><rect x="41mm" y="8mm" width="1mm" height="1mm"/><rect x="42mm" y="8mm" width="1mm" height="1mm"/><rect x="44mm" y="8mm" width="1mm" height="1mm"/><rect x="4mm" y="9mm" width="1mm" height="1mm"/><rect x="10mm" y="9mm" width="1mm" height="1mm"/><rect x="12mm" y="9mm" width="1mm" height="1mm"/><rect x="13mm" y="9mm" width="1mm" height="1mm"/><rect x="14mm" y="9mm" width="1mm" height="1mm"/><rect x="16mm" y="9mm" width="1mm" height="1mm"/><rect x="17mm" y="9mm" width="1mm" height="1mm"/><rect x="19mm" y="9mm" width="1mm" height="1mm"/><rect x="20mm" y="9mm" width="1mm" height="1mm"/><rect x="22mm" y="9mm" width="1mm" height="1mm"/><rect x="24mm" y="9mm" width="1mm" height="1mm"/><rect x="25mm" y="9mm" width="1mm" height="1mm"/><rect x="27mm" y="9mm" width="1mm" height="1mm"/><rect x="28mm" y="9mm" width="1mm" height="1mm"/><rect x="32mm" y="9mm" width="1mm" height="1mm"/><rect x="34mm" y="9mm" width="1mm" height="1mm"/><rect x="38mm" y="9mm" width="1mm" height="1mm"/><rect x="44mm" y="9mm" width="1mm" height="1mm"/><rect x="4mm" y="10mm" width="1mm" height="1mm"/><rect x="5mm" y="10mm" width="1mm" height="1mm"/><rect x="6mm" y="10mm" width="1mm" height="1mm"/><rect x="7mm" y="10mm" width="1mm" height="1mm"/><rect x="8mm" y="10mm" width="1mm" height="1mm"/><rect x="9mm" y="10mm" width="1mm" height="1mm"/><rect x="10mm" y="10mm" width="1mm" height="1mm"/><rect x="12mm" y="10mm" width="1mm" height="1mm"/><rect x="14mm" y="10mm" width="1mm" height="1mm"/><rect x="16mm" y="10mm" width="1mm" height="1mm"/><rect x="18mm" y="10mm" width="1mm" height="1mm"/><rect x="20mm" y="10mm" width="1mm" height="1mm"/><rect x="22mm" y="10mm" width="1mm" height="1mm"/><rect x="24mm" y="10mm" width="1mm" height="1mm"/><rect x="26mm" y="10mm" width="1mm" height="1mm"/><rect x="28mm" y="10mm" width="1mm" height="1mm"/><rect x="30mm" y="10mm" width="1mm" height="1mm"/><rect x="32mm" y="10mm" width="1mm" height="1mm"/><rect x="34mm" y="10mm" width="1mm" height="1mm"/><rect x="36mm" y="10mm" width="1mm" height="1mm"/><rect x="38mm" y="10mm" width="1mm" height="1mm"/><rect x="39mm" y="10mm" width="1mm" height="1mm"/><rect x="40mm" y="10mm" width="1mm" height="1mm"/><rect x="41mm" y="10mm" width="1mm" height="1mm"/><rect x="42mm" y="10mm" width="1mm" height="1mm"/><rect x="43mm" y="10mm" width="1mm" height="1mm"/><rect x="44mm" y="10mm" width="1mm" height="1mm"/><rect x="13mm" y="11mm" width="1mm" height="1mm"/><rect x="15mm" y="11mm" width="1mm" height="1mm"/><rect x="18mm" y="11mm" width="1mm" height="1mm"/><rect x="21mm" y="11mm" width="1mm" height="1mm"/><rect x="22mm" y="11mm" width="1mm" height="1mm"/><rect x="23mm" y="11mm" width="1mm" height="1mm"/><rect x="26mm" y="11mm" width="1mm" height="1mm"/><rect x="27mm" y="11mm" width="1mm" height="1mm"/><rect x="29mm" y="11mm" width="1mm" height="1mm"/><rect x="30mm" y="11mm" width="1mm" height="1mm"/><rect x="32mm" y="11mm" width="1mm" height="1mm"/><rect x="34mm" y="11mm" width="1mm" height="1mm"/><rect x="35mm" y="11mm" width="1mm" height="1mm"/><rect x="6mm" y="12mm" width="1mm" height="1mm"/><rect x="9mm" y="12mm" width="1mm" height="1mm"/><rect x="10mm" y="12mm" width="1mm" height="1mm"/><rect x="11mm" y="12mm" width="1mm" height="1mm"/><rect x="12mm" y="12mm" width="1mm" height="1mm"/><rect x="13mm" y="12mm" width="1mm" height="1mm"/><rect x="15mm" y="12mm" width="1mm" height="1mm"/><rect x="17mm" y="12mm" width="1mm" height="1mm"/><rect x="19mm" y="12mm" width="1mm" height="1mm"/><rect x="20mm" y="12mm" width="1mm" height="1mm"/><rect x="21mm" y="12mm" width="1mm" height="1mm"/><rect x="22mm" y="12mm" width="1mm" height="1mm"/><rect x="27mm" y="12mm" width="1mm" height="1mm"/><rect x="29mm" y="12mm" width="1mm" height="1mm"/><rect x="31mm" y="12mm" width="1mm" height="1mm"/><rect x="35mm" y="12mm" width="1mm" height="1mm"/><rect x="36mm" y="12mm" width="1mm" height="1mm"/><rect x="37mm" y="12mm" width="1mm" height="1mm"/><rect x="39mm" y="12mm" width="1mm" height="1mm"/><rect x="40mm" y="12mm" width="1mm" height="1mm"/><rect x="41mm" y="12mm" width="1mm" height="1mm"/><rect x="42mm" y="12mm" width="1mm" height="1mm"/><rect x="43mm" y="12mm" width="1mm" height="1mm"/><rect x="4mm" y="13mm" width="1mm" height="1mm"/><rect x="5mm" y="13mm" width="1mm" height="1mm"/><rect x="6mm" y="13mm" width="1mm" height="1mm"/><rect x="8mm" y="13mm" width="1mm" height="1mm"/><rect x="11mm" y="13mm" width="1mm" height="1mm"/><rect x="12mm" y="13mm" width="1mm" height="1mm"/><rect x="15mm" y="13mm" width="1mm" height="1mm"/><rect x="18mm" y="13mm" width="1mm" height="1mm"/><rect x="23mm" y="13mm" width="1mm" height="1mm"/><rect x="24mm" y="13mm" width="1mm" height="1mm"/><rect x="25mm" y="13mm" width="1mm" height="1mm"/><rect x="26mm" y="13mm" width="1mm" height="1mm"/><rect x="29mm" y="13mm" width="1mm" height="1mm"/><rect x="31mm" y="13mm" width="1mm" height="1mm"/><rect x="33mm" y="13mm" width="1mm" height="1mm"/><rect x="35mm" y="13mm" width="1mm" height="1mm"/><rect x="36mm" y="13mm" width="1mm" height="1mm"/><rect x="38mm" y="13mm" width="1mm" height="1mm"/><rect x="39mm" y="13mm" width="1mm" height="1mm"/><rect x="42mm" y="13mm" width="1mm" height="1mm"/><rect x="44mm" y="13mm" width="1mm" height="1mm"/><rect x="5mm" y="14mm" width="1mm" height="1mm"/><rect x="7mm" y="14mm" width="1mm" height="1mm"/><rect x="10mm" y="14mm" width="1mm" height="1mm"/><rect x="12mm" y="14mm" width="1mm" height="1mm"/><rect x="16mm" y="14mm" width="1mm" height="1mm"/><rect x="22mm" y="14mm" width="1mm" height="1mm"/><rect x="23mm" y="14mm" width="1mm" height="1mm"/><rect x="24mm" y="14mm" width="1mm" height="1mm"/><rect x="26mm" y="14mm" width="1mm" height="1mm"/><rect x="27mm" y="14mm" width="1mm" height="1mm"/><rect x="28mm" y="14mm" width="1mm" height="1mm"/><rect x="31mm" y="14mm" width="1mm" height="1mm"/><rect x="35mm" y="14mm" width="1mm" height="1mm"/><rect x="39mm" y="14mm" width="1mm" height="1mm"/><rect x="40mm" y="14mm" width="1mm" height="1mm"/><rect x="41mm" y="14mm" width="1mm" height="1mm"/><rect x="42mm" y="14mm" width="1mm" height="1mm"/><rect x="44mm" y="14mm" width="1mm" height="1mm"/><rect x="6mm" y="15mm" width="1mm" height="1mm"/><rect x="8mm" y="15mm" width="1mm" height="1mm"/><rect x="13mm" y="15mm" width="1mm" height="1mm"/><rect x="15mm" y="15mm" width="1mm" height="1mm"/><rect x="16mm" y="15mm" width="1mm" height="1mm"/><rect x="18mm" y="15mm" width="1mm" height="1mm"/><rect x="21mm" y="15mm" width="1mm" height="1mm"/><rect x="26mm" y="15mm" width="1mm" height="1mm"/><rect x="28mm" y="15mm" width="1mm" height="1mm"/><rect x="30mm" y="15mm" width="1mm" height="1mm"/><rect x="35mm" y="15mm" width="1mm" height="1mm"/><rect x="36mm" y="15mm" width="1mm" height="1mm"/><rect x="39mm" y="15mm" width="1mm" height="1mm"/><rect x="41mm" y="15mm" width="1mm" height="1mm"/><rect x="43mm" y="15mm" width="1mm" height="1mm"/><rect x="5mm" y="16mm" width="1mm" height="1mm"/><rect x="6mm" y="16mm" width="1mm" height="1mm"/><rect x="7mm" y="16mm" width="1mm" height="1mm"/><rect x="9mm" y="16mm" width="1mm" height="1mm"/><rect x="10mm" y="16mm" width="1mm" height="1mm"/><rect x="13mm" y="16mm" width="1mm" height="1mm"/><rect x="16mm" y="16mm" width="1mm" height="1mm"/><rect x="18mm" y="16mm" width="1mm" height="1mm"/><rect x="19mm" y="16mm" width="1mm" height="1mm"/><rect x="21mm" y="16mm" width="1mm" height="1mm"/><rect x="25mm" y="16mm" width="1mm" height="1mm"/><rect x="26mm" y="16mm" width="1mm" height="1mm"/><rect x="27mm" y="16mm" width="1mm" height="1mm"/><rect x="29mm" y="16mm" width="1mm" height="1mm"/><rect x="30mm" y="16mm" width="1mm" height="1mm"/><rect x="31mm" y="16mm" width="1mm" height="1mm"/><rect x="36mm" y="16mm" width="1mm" height="1mm"/><rect x="38mm" y="16mm" width="1mm" height="1mm"/><rect x="43mm" y="16mm" width="1mm" height="1mm"/><rect x="44mm" y="16mm" width="1mm" height="1mm"/><rect x="4mm" y="17mm" width="1mm" height="1mm"/><rect x="5mm" y="17mm" width="1mm" height="1mm"/><rect x="8mm" y="17mm" width="1mm" height="1mm"/><rect x="11mm" y="17mm" width="1mm" height="1mm"/><rect x="12mm" y="17mm" width="1mm" height="1mm"/><rect x="17mm" y="17mm" width="1mm" height="1mm"/><rect x="24mm" y="17mm" width="1mm" height="1mm"/><rect x="26mm" y="17mm" width="1mm" height="1mm"/><rect x="29mm" y="17mm" width="1mm" height="1mm"/><rect x="30mm" y="17mm" width="1mm" height="1mm"/><rect x="35mm" y="17mm" width="1mm" height="1mm"/><rect x="38mm" y="17mm" width="1mm" height="1mm"/><rect x="39mm" y="17mm" width="1mm" height="1mm"/><rect x="43mm" y="17mm" width="1mm" height="1mm"/><rect x="44mm" y="17mm" width="1mm" height="1mm"/><rect x="7mm" y="18mm" width="1mm" height="1mm"/><rect x="8mm" y="18mm" width="1mm" height="1mm"/><rect x="9mm" y="18mm" width="1mm" height="1mm"/><rect x="10mm" y="18mm" width="1mm" height="1mm"/><rect x="16mm" y="18mm" width="1mm" height="1mm"/><rect x="18mm" y="18mm" width="1mm" height="1mm"/><rect x="19mm" y="18mm" width="1mm" height="1mm"/><rect x="22mm" y="18mm" width="1mm" height="1mm"/><rect x="23mm" y="18mm" width="1mm" height="1mm"/><rect x="24mm" y="18mm" width="1mm" height="1mm"/><rect x="27mm" y="18mm" width="1mm" height="1mm"/><rect x="29mm" y="18mm" width="1mm" height="1mm"/><rect x="30mm" y="18mm" width="1mm" height="1mm"/><rect x="31mm" y="18mm" width="1mm" height="1mm"/><rect x="33mm" y="18mm" width="1mm" height="1mm"/><rect x="34mm" y="18mm" width="1mm" height="1mm"/><rect x="35mm" y="18mm" width="1mm" height="1mm"/><rect x="37mm" y="18mm" width="1mm" height="1mm"/><rect x="38mm" y="18mm" width="1mm" height="1mm"/><rect x="40mm" y="18mm" width="1mm" height="1mm"/><rect x="41mm" y="18mm" width="1mm" height="1mm"/><rect x="42mm" y="18mm" width="1mm" height="1mm"/><rect x="44mm" y="18mm" width="1mm" height="1mm"/><rect x="5mm" y="19mm" width="1mm" height="1mm"/><rect x="8mm" y="19mm" width="1mm" height="1mm"/><rect x="11mm" y="19mm" width="1mm" height="1mm"/><rect x="13mm" y="19mm" width="1mm" height="1mm"/><rect x="14mm" y="19mm" width="1mm" height="1mm"/><rect x="16mm" y="19mm" width="1mm" height="1mm"/><rect x="18mm" y="19mm" width="1mm" height="1mm"/><rect x="23mm" y="19mm" width="1mm" height="1mm"/><rect x="24mm" y="19mm" width="1mm" height="1mm"/><rect x="27mm" y="19mm" width="1mm" height="1mm"/><rect x="29mm" y="19mm" width="1mm" height="1mm"/><rect x="34mm" y="19mm" width="1mm" height="1mm"/><rect x="37mm" y="19mm" width="1mm" height="1mm"/><rect x="38mm" y="19mm" width="1mm" height="1mm"/><rect x="40mm" y="19mm" width="1mm" height="1mm"/><rect x="43mm" y="19mm" width="1mm" height="1mm"/><rect x="44mm" y="19mm" width="1mm" height="1mm"/><rect x="4mm" y="20mm" width="1mm" height="1mm"/><rect x="7mm" y="20mm" width="1mm" height="1mm"/><rect x="9mm" y="20mm" width="1mm" height="1mm"/><rect x="10mm" y="20mm" width="1mm" height="1mm"/><rect x="12mm" y="20mm" width="1mm" height="1mm"/><rect x="14mm" y="20mm" width="1mm" height="1mm"/><rect x="16mm" y="20mm" width="1mm" height="1mm"/><rect x="19mm" y="20mm" width="1mm" height="1mm"/><rect x="20mm" y="20mm" width="1mm" height="1mm"/><rect x="24mm" y="20mm" width="1mm" height="1mm"/><rect x="25mm" y="20mm" width="1mm" height="1mm"/><rect x="28mm" y="20mm" width="1mm" height="1mm"/><rect x="29mm" y="20mm" width="1mm" height="1mm"/><rect x="30mm" y="20mm" width="1mm" height="1mm"/><rect x="31mm" y="20mm" width="1mm" height="1mm"/><rect x="35mm" y="20mm" width="1mm" height="1mm"/><rect x="36mm" y="20mm" width="1mm" height="1mm"/><rect x="37mm" y="20mm" width="1mm" height="1mm"/><rect x="38mm" y="20mm" width="1mm" height="1mm"/><rect x="41mm" y="20mm" width="1mm" height="1mm"/><rect x="44mm" y="20mm" width="1mm" height="1mm"/><rect x="4mm" y="21mm" width="1mm" height="1mm"/><rect x="5mm" y="21mm" width="1mm" height="1mm"/><rect x="6mm" y="21mm" width="1mm" height="1mm"/><rect x="7mm" y="21mm" width="1mm" height="1mm"/><rect x="9mm" y="21mm" width="1mm" height="1mm"/><rect x="11mm" y="21mm" width="1mm" height="1mm"/><rect x="14mm" y="21mm" width="1mm" height="1mm"/><rect x="16mm" y="21mm" width="1mm" height="1mm"/><rect x="23mm" y="21mm" width="1mm" height="1mm"/><rect x="25mm" y="21mm" width="1mm" height="1mm"/><rect x="28mm" y="21mm" width="1mm" height="1mm"/><rect x="30mm" y="21mm" width="1mm" height="1mm"/><rect x="31mm" y="21mm" width="1mm" height="1mm"/><rect x="32mm" y="21mm" width="1mm" height="1mm"/><rect x="33mm" y="21mm" width="1mm" height="1mm"/><rect x="36mm" y="21mm" width="1mm" height="1mm"/><rect x="37mm" y="21mm" width="1mm" height="1mm"/><rect x="38mm" y="21mm" width="1mm" height="1mm"/><rect x="39mm" y="21mm" width="1mm" height="1mm"/><rect x="41mm" y="21mm" width="1mm" height="1mm"/><rect x="43mm" y="21mm" width="1mm" height="1mm"/><rect x="44mm" y="21mm" width="1mm" height="1mm"/><rect x="6mm" y="22mm" width="1mm" height="1mm"/><rect x="8mm" y="22mm" width="1mm" height="1mm"/><rect x="9mm" y="22mm" width="1mm" height="1mm"/><rect x="10mm" y="22mm" width="1mm" height="1mm"/><rect x="14mm" y="22mm" width="1mm" height="1mm"/><rect x="19mm" y="22mm" width="1mm" height="1mm"/><rect x="21mm" y="22mm" width="1mm" height="1mm"/><rect x="22mm" y="22mm" width="1mm" height="1mm"/><rect x="24mm" y="22mm" width="1mm" height="1mm"/><rect x="26mm" y="22mm" width="1mm" height="1mm"/><rect x="27mm" y="22mm" width="1mm" height="1mm"/><rect x="30mm" y="22mm" width="1mm" height="1mm"/><rect x="31mm" y="22mm" width="1mm" height="1mm"/><rect x="35mm" y="22mm" width="1mm" height="1mm"/><rect x="38mm" y="22mm" width="1mm" height="1mm"/><rect x="39mm" y="22mm" width="1mm" height="1mm"/><rect x="40mm" y="22mm" width="1mm" height="1mm"/><rect x="42mm" y="22mm" width="1mm" height="1mm"/><rect x="43mm" y="22mm" width="1mm" height="1mm"/><rect x="44mm" y="22mm" width="1mm" height="1mm"/><rect x="5mm" y="23mm" width="1mm" height="1mm"/><rect x="6mm" y="23mm" width="1mm" height="1mm"/><rect x="7mm" y="23mm" width="1mm" height="1mm"/><rect x="11mm" y="23mm" width="1mm" height="1mm"/><rect x="13mm" y="23mm" width="1mm" height="1mm"/><rect x="16mm" y="23mm" width="1mm" height="1mm"/><rect x="17mm" y="23mm" width="1mm" height="1mm"/><rect x="19mm" y="23mm" width="1mm" height="1mm"/><rect x="22mm" y="23mm" width="1mm" height="1mm"/><rect x="25mm" y="23mm" width="1mm" height="1mm"/><rect x="28mm" y="23mm" width="1mm" height="1mm"/><rect x="29mm" y="23mm" width="1mm" height="1mm"/><rect x="30mm" y="23mm" width="1mm" height="1mm"/><rect x="33mm" y="23mm" width="1mm" height="1mm"/><rect x="36mm" y="23mm" width="1mm" height="1mm"/><rect x="41mm" y="23mm" width="1mm" height="1mm"/><rect x="43mm" y="23mm" width="1mm" height="1mm"/><rect x="4mm" y="24mm" width="1mm" height="1mm"/><rect x="5mm" y="24mm" width="1mm" height="1mm"/><rect x="6mm" y="24mm" width="1mm" height="1mm"/><rect x="7mm" y="24mm" width="1mm" height="1mm"/><rect x="8mm" y="24mm" width="1mm" height="1mm"/><rect x="9mm" y="24mm" width="1mm" height="1mm"/><rect x="10mm" y="24mm" width="1mm" height="1mm"/><rect x="13mm" y="24mm" width="1mm" height="1mm"/><rect x="15mm" y="24mm" width="1mm" height="1mm"/><rect x="16mm" y="24mm" width="1mm" height="1mm"/><rect x="22mm" y="24mm" width="1mm" height="1mm"/><rect x="23mm" y="24mm" width="1mm" height="1mm"/><rect x="25mm" y="24mm" width="1mm" height="1mm"/><rect x="26mm" y="24mm" width="1mm" height="1mm"/><rect x="28mm" y="24mm" width="1mm" height="1mm"/><rect x="29mm" y="24mm" width="1mm" height="1mm"/><rect x="30mm" y="24mm" width="1mm" height="1mm"/><rect x="31mm" y="24mm" width="1mm" height="1mm"/><rect x="33mm" y="24mm" width="1mm" height="1mm"/><rect x="35mm" y="24mm" width="1mm" height="1mm"/><rect x="36mm" y="24mm" width="1mm" height="1mm"/><rect x="38mm" y="24mm" width="1mm" height="1mm"/><rect x="39mm" y="24mm" width="1mm" height="1mm"/><rect x="41mm" y="24mm" width="1mm" height="1mm"/><rect x="43mm" y="24mm" width="1mm" height="1mm"/><rect x="4mm" y="25mm" width="1mm" height="1mm"/><rect x="5mm" y="25mm" width="1mm" height="1mm"/><rect x="7mm" y="25mm" width="1mm" height="1mm"/><rect x="11mm" y="25mm" width="1mm" height="1mm"/><rect x="12mm" y="25mm" width="1mm" height="1mm"/><rect x="13mm" y="25mm" width="1mm" height="1mm"/><rect x="14mm" y="25mm" width="1mm" height="1mm"/><rect x="15mm" y="25mm" width="1mm" height="1mm"/><rect x="16mm" y="25mm" width="1mm" height="1mm"/><rect x="18mm" y="25mm" width="1mm" height="1mm"/><rect x="20mm" y="25mm" width="1mm" height="1mm"/><rect x="21mm" y="25mm" width="1mm" height="1mm"/><rect x="22mm" y="25mm" width="1mm" height="1mm"/><rect x="24mm" y="25mm" width="1mm" height="1mm"/><rect x="25mm" y="25mm" width="1mm" height="1mm"/><rect x="27mm" y="25mm" width="1mm" height="1mm"/><rect x="28mm" y="25mm" width="1mm" height="1mm"/><rect x="29mm" y="25mm" width="1mm" height="1mm"/><rect x="31mm" y="25mm" width="1mm" height="1mm"/><rect x="32mm" y="25mm" width="1mm" height="1mm"/><rect x="35mm" y="25mm" width="1mm" height="1mm"/><rect x="36mm" y="25mm" width="1mm" height="1mm"/><rect x="38mm" y="25mm" width="1mm" height="1mm"/><rect x="39mm" y="25mm" width="1mm" height="1mm"/><rect x="44mm" y="25mm" width="1mm" height="1mm"/><rect x="6mm" y="26mm" width="1mm" height="1mm"/><rect x="7mm" y="26mm" width="1mm" height="1mm"/><rect x="8mm" y="26mm" width="1mm" height="1mm"/><rect x="10mm" y="26mm" width="1mm" height="1mm"/><rect x="11mm" y="26mm" width="1mm" height="1mm"/><rect x="13mm" y="26mm" width="1mm" height="1mm"/><rect x="15mm" y="26mm" width="1mm" height="1mm"/><rect x="18mm" y="26mm" width="1mm" height="1mm"/><rect x="20mm" y="26mm" width="1mm" height="1mm"/><rect x="22mm" y="26mm" width="1mm" height="1mm"/><rect x="25mm" y="26mm" width="1mm" height="1mm"/><rect x="26mm" y="26mm" width="1mm" height="1mm"/><rect x="29mm" y="26mm" width="1mm" height="1mm"/><rect x="30mm" y="26mm" width="1mm" height="1mm"/><rect x="31mm" y="26mm" width="1mm" height="1mm"/><rect x="33mm" y="26mm" width="1mm" height="1mm"/><rect x="34mm" y="26mm" width="1mm" height="1mm"/><rect x="35mm" y="26mm" width="1mm" height="1mm"/><rect x="40mm" y="26mm" width="1mm" height="1mm"/><rect x="44mm" y="26mm" width="1mm" height="1mm"/><rect x="4mm" y="27mm" width="1mm" height="1mm"/><rect x="6mm" y="27mm" width="1mm" height="1mm"/><rect x="7mm" y="27mm" width="1mm" height="1mm"/><rect x="9mm" y="27mm" width="1mm" height="1mm"/><rect x="12mm" y="27mm" width="1mm" height="1mm"/><rect x="13mm" y="27mm" width="1mm" height="1mm"/><rect x="14mm" y="27mm" width="1mm" height="1mm"/><rect x="20mm" y="27mm" width="1mm" height="1mm"/><rect x="21mm" y="27mm" width="1mm" height="1mm"/><rect x="23mm" y="27mm" width="1mm" height="1mm"/><rect x="24mm" y="27mm" width="1mm" height="1mm"/><rect x="26mm" y="27mm" width="1mm" height="1mm"/><rect x="28mm" y="27mm" width="1mm" height="1mm"/><rect x="29mm" y="27mm" width="1mm" height="1mm"/><rect x="30mm" y="27mm" width="1mm" height="1mm"/><rect x="31mm" y="27mm" width="1mm" height="1mm"/><rect x="32mm" y="27mm" width="1mm" height="1mm"/><rect x="34mm" y="27mm" width="1mm" height="1mm"/><rect x="36mm" y="27mm" width="1mm" height="1mm"/><rect x="37mm" y="27mm" width="1mm" height="1mm"/><rect x="38mm" y="27mm" width="1mm" height="1mm"/><rect x="40mm" y="27mm" width="1mm" height="1mm"/><rect x="41mm" y="27mm" width="1mm" height="1mm"/><rect x="43mm" y="27mm" width="1mm" height="1mm"/><rect x="9mm" y="28mm" width="1mm" height="1mm"/><rect x="10mm" y="28mm" width="1mm" height="1mm"/><rect x="11mm" y="28mm" width="1mm" height="1mm"/><rect x="13mm" y="28mm" width="1mm" height="1mm"/><rect x="16mm" y="28mm" width="1mm" height="1mm"/><rect x="19mm" y="28mm" width="1mm" height="1mm"/><rect x="20mm" y="28mm" width="1mm" height="1mm"/><rect x="23mm" y="28mm" width="1mm" height="1mm"/><rect x="24mm" y="28mm" width="1mm" height="1mm"/><rect x="27mm" y="28mm" width="1mm" height="1mm"/><rect x="28mm" y="28mm" width="1mm" height="1mm"/><rect x="29mm" y="28mm" width="1mm" height="1mm"/><rect x="35mm" y="28mm" width="1mm" height="1mm"/><rect x="36mm" y="28mm" width="1mm" height="1mm"/><rect x="38mm" y="28mm" width="1mm" height="1mm"/><rect x="41mm" y="28mm" width="1mm" height="1mm"/><rect x="44mm" y="28mm" width="1mm" height="1mm"/><rect x="8mm" y="29mm" width="1mm" height="1mm"/><rect x="9mm" y="29mm" width="1mm" height="1mm"/><rect x="17mm" y="29mm" width="1mm" height="1mm"/><rect x="18mm" y="29mm" width="1mm" height="1mm"/><rect x="20mm" y="29mm" width="1mm" height="1mm"/><rect x="22mm" y="29mm" width="1mm" height="1mm"/><rect x="25mm" y="29mm" width="1mm" height="1mm"/><rect x="26mm" y="29mm" width="1mm" height="1mm"/><rect x="29mm" y="29mm" width="1mm" height="1mm"/><rect x="30mm" y="29mm" width="1mm" height="1mm"/><rect x="31mm" y="29mm" width="1mm" height="1mm"/><rect x="33mm" y="29mm" width="1mm" height="1mm"/><rect x="35mm" y="29mm" width="1mm" height="1mm"/><rect x="39mm" y="29mm" width="1mm" height="1mm"/><rect x="41mm" y="29mm" width="1mm" height="1mm"/><rect x="4mm" y="30mm" width="1mm" height="1mm"/><rect x="5mm" y="30mm" width="1mm" height="1mm"/><rect x="6mm" y="30mm" width="1mm" height="1mm"/><rect x="7mm" y="30mm" width="1mm" height="1mm"/><rect x="8mm" y="30mm" width="1mm" height="1mm"/><rect x="10mm" y="30mm" width="1mm" height="1mm"/><rect x="12mm" y="30mm" width="1mm" height="1mm"/><rect x="14mm" y="30mm" width="1mm" height="1mm"/><rect x="16mm" y="30mm" width="1mm" height="1mm"/><rect x="17mm" y="30mm" width="1mm" height="1mm"/><rect x="23mm" y="30mm" width="1mm" height="1mm"/><rect x="24mm" y="30mm" width="1mm" height="1mm"/><rect x="30mm" y="30mm" width="1mm" height="1mm"/><rect x="31mm" y="30mm" width="1mm" height="1mm"/><rect x="33mm" y="30mm" width="1mm" height="1mm"/><rect x="34mm" y="30mm" width="1mm" height="1mm"/><rect x="35mm" y="30mm" width="1mm" height="1mm"/><rect x="37mm" y="30mm" width="1mm" height="1mm"/><rect x="38mm" y="30mm" width="1mm" height="1mm"/><rect x="39mm" y="30mm" width="1mm" height="1mm"/><rect x="41mm" y="30mm" width="1mm" height="1mm"/><rect x="42mm" y="30mm" width="1mm" height="1mm"/><rect x="44mm" y="30mm" width="1mm" height="1mm"/><rect x="5mm" y="31mm" width="1mm" height="1mm"/><rect x="7mm" y="31mm" width="1mm" height="1mm"/><rect x="14mm" y="31mm" width="1mm" height="1mm"/><rect x="15mm" y="31mm" width="1mm" height="1mm"/><rect x="16mm" y="31mm" width="1mm" height="1mm"/><rect x="21mm" y="31mm" width="1mm" height="1mm"/><rect x="22mm" y="31mm" width="1mm" height="1mm"/><rect x="28mm" y="31mm" width="1mm" height="1mm"/><rect x="29mm" y="31mm" width="1mm" height="1mm"/><rect x="30mm" y="31mm" width="1mm" height="1mm"/><rect x="32mm" y="31mm" width="1mm" height="1mm"/><rect x="34mm" y="31mm" width="1mm" height="1mm"/><rect x="35mm" y="31mm" width="1mm" height="1mm"/><rect x="36mm" y="31mm" width="1mm" height="1mm"/><rect x="37mm" y="31mm" width="1mm" height="1mm"/><rect x="39mm" y="31mm" width="1mm" height="1mm"/><rect x="40mm" y="31mm" width="1mm" height="1mm"/><rect x="41mm" y="31mm" width="1mm" height="1mm"/><rect x="43mm" y="31mm" width="1mm" height="1mm"/><rect x="4mm" y="32mm" width="1mm" height="1mm"/><rect x="5mm" y="32mm" width="1mm" height="1mm"/><rect x="7mm" y="32mm" width="1mm" height="1mm"/><rect x="9mm" y="32mm" width="1mm" height="1mm"/><rect x="10mm" y="32mm" width="1mm" height="1mm"/><rect x="11mm" y="32mm" width="1mm" height="1mm"/><rect x="12mm" y="32mm" width="1mm" height="1mm"/><rect x="15mm" y="32mm" width="1mm" height="1mm"/><rect x="19mm" y="32mm" width="1mm" height="1mm"/><rect x="21mm" y="32mm" width="1mm" height="1mm"/><rect x="23mm" y="32mm" width="1mm" height="1mm"/><rect x="24mm" y="32mm" width="1mm" height="1mm"/><rect x="25mm" y="32mm" width="1mm" height="1mm"/><rect x="26mm" y="32mm" width="1mm" height="1mm"/><rect x="27mm" y="32mm" width="1mm" height="1mm"/><rect x="29mm" y="32mm" width="1mm" height="1mm"/><rect x="31mm" y="32mm" width="1mm" height="1mm"/><rect x="32mm" y="32mm" width="1mm" height="1mm"/><rect x="36mm" y="32mm" width="1mm" height="1mm"/><rect x="38mm" y="32mm" width="1mm" height="1mm"/><rect x="39mm" y="32mm" width="1mm" height="1mm"/><rect x="43mm" y="32mm" width="1mm" height="1mm"/><rect x="5mm" y="33mm" width="1mm" height="1mm"/><rect x="6mm" y="33mm" width="1mm" height="1mm"/><rect x="7mm" y="33mm" width="1mm" height="1mm"/><rect x="9mm" y="33mm" width="1mm" height="1mm"/><rect x="11mm" y="33mm" width="1mm" height="1mm"/><rect x="13mm" y="33mm" width="1mm" height="1mm"/><rect x="14mm" y="33mm" width="1mm" height="1mm"/><rect x="17mm" y="33mm" width="1mm" height="1mm"/><rect x="20mm" y="33mm" width="1mm" height="1mm"/><rect x="21mm" y="33mm" width="1mm" height="1mm"/><rect x="26mm" y="33mm" width="1mm" height="1mm"/><rect x="30mm" y="33mm" width="1mm" height="1mm"/><rect x="32mm" y="33mm" width="1mm" height="1mm"/><rect x="33mm" y="33mm" width="1mm" height="1mm"/><rect x="35mm" y="33mm" width="1mm" height="1mm"/><rect x="36mm" y="33mm" width="1mm" height="1mm"/><rect x="37mm" y="33mm" width="1mm" height="1mm"/><rect x="38mm" y="33mm" width="1mm" height="1mm"/><rect x="39mm" y="33mm" width="1mm" height="1mm"/><rect x="41mm" y="33mm" width="1mm" height="1mm"/><rect x="42mm" y="33mm" width="1mm" height="1mm"/><rect x="44mm" y="33mm" width="1mm" height="1mm"/><rect x="4mm" y="34mm" width="1mm" height="1mm"/><rect x="5mm" y="34mm" width="1mm" height="1mm"/><rect x="9mm" y="34mm" width="1mm" height="1mm"/><rect x="10mm" y="34mm" width="1mm" height="1mm"/><rect x="11mm" y="34mm" width="1mm" height="1mm"/><rect x="16mm" y="34mm" width="1mm" height="1mm"/><rect x="18mm" y="34mm" width="1mm" height="1mm"/><rect x="19mm" y="34mm" width="1mm" height="1mm"/><rect x="21mm" y="34mm" width="1mm" height="1mm"/><rect x="22mm" y="34mm" width="1mm" height="1mm"/><rect x="24mm" y="34mm" width="1mm" height="1mm"/><rect x="26mm" y="34mm" width="1mm" height="1mm"/><rect x="27mm" y="34mm" width="1mm" height="1mm"/><rect x="30mm" y="34mm" width="1mm" height="1mm"/><rect x="32mm" y="34mm" width="1mm" height="1mm"/><rect x="35mm" y="34mm" width="1mm" height="1mm"/><rect x="36mm" y="34mm" width="1mm" height="1mm"/><rect x="37mm" y="34mm" width="1mm" height="1mm"/><rect x="41mm" y="34mm" width="1mm" height="1mm"/><rect x="44mm" y="34mm" width="1mm" height="1mm"/><rect x="6mm" y="35mm" width="1mm" height="1mm"/><rect x="8mm" y="35mm" width="1mm" height="1mm"/><rect x="11mm" y="35mm" width="1mm" height="1mm"/><rect x="15mm" y="35mm" width="1mm" height="1mm"/><rect x="16mm" y="35mm" width="1mm" height="1mm"/><rect x="21mm" y="35mm" width="1mm" height="1mm"/><rect x="22mm" y="35mm" width="1mm" height="1mm"/><rect x="23mm" y="35mm" width="1mm" height="1mm"/><rect x="24mm" y="35mm" width="1mm" height="1mm"/><rect x="25mm" y="35mm" width="1mm" height="1mm"/><rect x="26mm" y="35mm" width="1mm" height="1mm"/><rect x="27mm" y="35mm" width="1mm" height="1mm"/><rect x="29mm" y="35mm" width="1mm" height="1mm"/><rect x="31mm" y="35mm" width="1mm" height="1mm"/><rect x="32mm" y="35mm" width="1mm" height="1mm"/><rect x="36mm" y="35mm" width="1mm" height="1mm"/><rect x="38mm" y="35mm" width="1mm" height="1mm"/><rect x="39mm" y="35mm" width="1mm" height="1mm"/><rect x="41mm" y="35mm" width="1mm" height="1mm"/><rect x="44mm" y="35mm" width="1mm" height="1mm"/><rect x="4mm" y="36mm" width="1mm" height="1mm"/><rect x="5mm" y="36mm" width="1mm" height="1mm"/><rect x="10mm" y="36mm" width="1mm" height="1mm"/><rect x="11mm" y="36mm" width="1mm" height="1mm"/><rect x="13mm" y="36mm" width="1mm" height="1mm"/><rect x="14mm" y="36mm" width="1mm" height="1mm"/><rect x="15mm" y="36mm" width="1mm" height="1mm"/><rect x="16mm" y="36mm" width="1mm" height="1mm"/><rect x="20mm" y="36mm" width="1mm" height="1mm"/><rect x="21mm" y="36mm" width="1mm" height="1mm"/><rect x="23mm" y="36mm" width="1mm" height="1mm"/><rect x="26mm" y="36mm" width="1mm" height="1mm"/><rect x="30mm" y="36mm" width="1mm" height="1mm"/><rect x="32mm" y="36mm" width="1mm" height="1mm"/><rect x="35mm" y="36mm" width="1mm" height="1mm"/><rect x="36mm" y="36mm" width="1mm" height="1mm"/><rect x="37mm" y="36mm" width="1mm" height="1mm"/><rect x="38mm" y="36mm" width="1mm" height="1mm"/><rect x="39mm" y="36mm" width="1mm" height="1mm"/><rect x="40mm" y="36mm" width="1mm" height="1mm"/><rect x="41mm" y="36mm" width="1mm" height="1mm"/><rect x="12mm" y="37mm" width="1mm" height="1mm"/><rect x="15mm" y="37mm" width="1mm" height="1mm"/><rect x="21mm" y="37mm" width="1mm" height="1mm"/><rect x="24mm" y="37mm" width="1mm" height="1mm"/><rect x="25mm" y="37mm" width="1mm" height="1mm"/><rect x="26mm" y="37mm" width="1mm" height="1mm"/><rect x="28mm" y="37mm" width="1mm" height="1mm"/><rect x="29mm" y="37mm" width="1mm" height="1mm"/><rect x="31mm" y="37mm" width="1mm" height="1mm"/><rect x="32mm" y="37mm" width="1mm" height="1mm"/><rect x="36mm" y="37mm" width="1mm" height="1mm"/><rect x="40mm" y="37mm" width="1mm" height="1mm"/><rect x="41mm" y="37mm" width="1mm" height="1mm"/><rect x="43mm" y="37mm" width="1mm" height="1mm"/><rect x="44mm" y="37mm" width="1mm" height="1mm"/><rect x="4mm" y="38mm" width="1mm" height="1mm"/><rect x="5mm" y="38mm" width="1mm" height="1mm"/><rect x="6mm" y="38mm" width="1mm" height="1mm"/><rect x="7mm" y="38mm" width="1mm" height="1mm"/><rect x="8mm" y="38mm" width="1mm" height="1mm"/><rect x="9mm" y="38mm" width="1mm" height="1mm"/><rect x="10mm" y="38mm" width="1mm" height="1mm"/><rect x="12mm" y="38mm" width="1mm" height="1mm"/><rect x="13mm" y="38mm" width="1mm" height="1mm"/><rect x="17mm" y="38mm" width="1mm" height="1mm"/><rect x="20mm" y="38mm" width="1mm" height="1mm"/><rect x="21mm" y="38mm" width="1mm" height="1mm"/><rect x="22mm" y="38mm" width="1mm" height="1mm"/><rect x="25mm" y="38mm" width="1mm" height="1mm"/><rect x="28mm" y="38mm" width="1mm" height="1mm"/><rect x="29mm" y="38mm" width="1mm" height="1mm"/><rect x="30mm" y="38mm" width="1mm" height="1mm"/><rect x="31mm" y="38mm" width="1mm" height="1mm"/><rect x="32mm" y="38mm" width="1mm" height="1mm"/><rect x="33mm" y="38mm" width="1mm" height="1mm"/><rect x="34mm" y="38mm" width="1mm" height="1mm"/><rect x="36mm" y="38mm" width="1mm" height="1mm"/><rect x="38mm" y="38mm" width="1mm" height="1mm"/><rect x="40mm" y="38mm" width="1mm" height="1mm"/><rect x="42mm" y="38mm" width="1mm" height="1mm"/><rect x="43mm" y="38mm" width="1mm" height="1mm"/><rect x="44mm" y="38mm" width="1mm" height="1mm"/><rect x="4mm" y="39mm" width="1mm" height="1mm"/><rect x="10mm" y="39mm" width="1mm" height="1mm"/><rect x="12mm" y="39mm" width="1mm" height="1mm"/><rect x="14mm" y="39mm" width="1mm" height="1mm"/><rect x="17mm" y="39mm" width="1mm" height="1mm"/><rect x="18mm" y="39mm" width="1mm" height="1mm"/><rect x="25mm" y="39mm" width="1mm" height="1mm"/><rect x="28mm" y="39mm" width="1mm" height="1mm"/><rect x="31mm" y="39mm" width="1mm" height="1mm"/><rect x="32mm" y="39mm" width="1mm" height="1mm"/><rect x="34mm" y="39mm" width="1mm" height="1mm"/><rect x="35mm" y="39mm" width="1mm" height="1mm"/><rect x="36mm" y="39mm" width="1mm" height="1mm"/><rect x="40mm" y="39mm" width="1mm" height="1mm"/><rect x="41mm" y="39mm" width="1mm" height="1mm"/><rect x="4mm" y="40mm" width="1mm" height="1mm"/><rect x="6mm" y="40mm" width="1mm" height="1mm"/><rect x="7mm" y="40mm" width="1mm" height="1mm"/><rect x="8mm" y="40mm" width="1mm" height="1mm"/><rect x="10mm" y="40mm" width="1mm" height="1mm"/><rect x="13mm" y="40mm" width="1mm" height="1mm"/><rect x="14mm" y="40mm" width="1mm" height="1mm"/><rect x="16mm" y="40mm" width="1mm" height="1mm"/><rect x="17mm" y="40mm" width="1mm" height="1mm"/><rect x="18mm" y="40mm" width="1mm" height="1mm"/><rect x="20mm" y="40mm" width="1mm" height="1mm"/><rect x="23mm" y="40mm" width="1mm" height="1mm"/><rect x="24mm" y="40mm" width="1mm" height="1mm"/><rect x="25mm" y="40mm" width="1mm" height="1mm"/><rect x="28mm" y="40mm" width="1mm" height="1mm"/><rect x="32mm" y="40mm" width="1mm" height="1mm"/><rect x="33mm" y="40mm" width="1mm" height="1mm"/><rect x="34mm" y="40mm" width="1mm" height="1mm"/><rect x="35mm" y="40mm" width="1mm" height="1mm"/><rect x="36mm" y="40mm" width="1mm" height="1mm"/><rect x="37mm" y="40mm" width="1mm" height="1mm"/><rect x="38mm" y="40mm" width="1mm" height="1mm"/><rect x="39mm" y="40mm" width="1mm" height="1mm"/><rect x="40mm" y="40mm" width="1mm" height="1mm"/><rect x="41mm" y="40mm" width="1mm" height="1mm"/><rect x="44mm" y="40mm" width="1mm" height="1mm"/><rect x="4mm" y="41mm" width="1mm" height="1mm"/><rect x="6mm" y="41mm" width="1mm" height="1mm"/><rect x="7mm" y="41mm" width="1mm" height="1mm"/><rect x="8mm" y="41mm" width="1mm" height="1mm"/><rect x="10mm" y="41mm" width="1mm" height="1mm"/><rect x="13mm" y="41mm" width="1mm" height="1mm"/><rect x="14mm" y="41mm" width="1mm" height="1mm"/><rect x="15mm" y="41mm" width="1mm" height="1mm"/><rect x="16mm" y="41mm" width="1mm" height="1mm"/><rect x="19mm" y="41mm" width="1mm" height="1mm"/><rect x="21mm" y="41mm" width="1mm" height="1mm"/><rect x="23mm" y="41mm" width="1mm" height="1mm"/><rect x="24mm" y="41mm" width="1mm" height="1mm"/><rect x="27mm" y="41mm" width="1mm" height="1mm"/><rect x="29mm" y="41mm" width="1mm" height="1mm"/><rect x="30mm" y="41mm" width="1mm" height="1mm"/><rect x="31mm" y="41mm" width="1mm" height="1mm"/><rect x="33mm" y="41mm" width="1mm" height="1mm"/><rect x="34mm" y="41mm" width="1mm" height="1mm"/><rect x="39mm" y="41mm" width="1mm" height="1mm"/><rect x="40mm" y="41mm" width="1mm" height="1mm"/><rect x="42mm" y="41mm" width="1mm" height="1mm"/><rect x="43mm" y="41mm" width="1mm" height="1mm"/><rect x="44mm" y="41mm" width="1mm" height="1mm"/><rect x="4mm" y="42mm" width="1mm" height="1mm"/><rect x="6mm" y="42mm" width="1mm" height="1mm"/><rect x="7mm" y="42mm" width="1mm" height="1mm"/><rect x="8mm" y="42mm" width="1mm" height="1mm"/><rect x="10mm" y="42mm" width="1mm" height="1mm"/><rect x="12mm" y="42mm" width="1mm" height="1mm"/><rect x="13mm" y="42mm" width="1mm" height="1mm"/><rect x="18mm" y="42mm" width="1mm" height="1mm"/><rect x="21mm" y="42mm" width="1mm" height="1mm"/><rect x="23mm" y="42mm" width="1mm" height="1mm"/><rect x="27mm" y="42mm" width="1mm" height="1mm"/><rect x="28mm" y="42mm" width="1mm" height="1mm"/><rect x="29mm" y="42mm" width="1mm" height="1mm"/><rect x="31mm" y="42mm" width="1mm" height="1mm"/><rect x="36mm" y="42mm" width="1mm" height="1mm"/><rect x="37mm" y="42mm" width="1mm" height="1mm"/><rect x="40mm" y="42mm" width="1mm" height="1mm"/><rect x="41mm" y="42mm" width="1mm" height="1mm"/><rect x="42mm" y="42mm" width="1mm" height="1mm"/><rect x="43mm" y="42mm" width="1mm" height="1mm"/><rect x="44mm" y="42mm" width="1mm" height="1mm"/><rect x="4mm" y="43mm" width="1mm" height="1mm"/><rect x="10mm" y="43mm" width="1mm" height="1mm"/><rect x="14mm" y="43mm" width="1mm" height="1mm"/><rect x="15mm" y="43mm" width="1mm" height="1mm"/><rect x="18mm" y="43mm" width="1mm" height="1mm"/><rect x="19mm" y="43mm" width="1mm" height="1mm"/><rect x="20mm" y="43mm" width="1mm" height="1mm"/><rect x="21mm" y="43mm" width="1mm" height="1mm"/><rect x="24mm" y="43mm" width="1mm" height="1mm"/><rect x="27mm" y="43mm" width="1mm" height="1mm"/><rect x="28mm" y="43mm" width="1mm" height="1mm"/><rect x="29mm" y="43mm" width="1mm" height="1mm"/><rect x="30mm" y="43mm" width="1mm" height="1mm"/><rect x="31mm" y="43mm" width="1mm" height="1mm"/><rect x="32mm" y="43mm" width="1mm" height="1mm"/><rect x="35mm" y="43mm" width="1mm" height="1mm"/><rect x="36mm" y="43mm" width="1mm" height="1mm"/><rect x="38mm" y="43mm" width="1mm" height="1mm"/><rect x="41mm" y="43mm" width="1mm" height="1mm"/><rect x="4mm" y="44mm" width="1mm" height="1mm"/><rect x="5mm" y="44mm" width="1mm" height="1mm"/><rect x="6mm" y="44mm" width="1mm" height="1mm"/><rect x="7mm" y="44mm" width="1mm" height="1mm"/><rect x="8mm" y="44mm" width="1mm" height="1mm"/><rect x="9mm" y="44mm" width="1mm" height="1mm"/><rect x="10mm" y="44mm" width="1mm" height="1mm"/><rect x="13mm" y="44mm" width="1mm" height="1mm"/><rect x="15mm" y="44mm" width="1mm" height="1mm"/><rect x="19mm" y="44mm" width="1mm" height="1mm"/><rect x="20mm" y="44mm" width="1mm" height="1mm"/><rect x="21mm" y="44mm" width="1mm" height="1mm"/><rect x="24mm" y="44mm" width="1mm" height="1mm"/><rect x="25mm" y="44mm" width="1mm" height="1mm"/><rect x="26mm" y="44mm" width="1mm" height="1mm"/><rect x="27mm" y="44mm" width="1mm" height="1mm"/><rect x="29mm" y="44mm" width="1mm" height="1mm"/><rect x="30mm" y="44mm" width="1mm" height="1mm"/><rect x="36mm" y="44mm" width="1mm" height="1mm"/><rect x="37mm" y="44mm" width="1mm" height="1mm"/><rect x="38mm" y="44mm" width="1mm" height="1mm"/><rect x="40mm" y="44mm" width="1mm" height="1mm"/><rect x="41mm" y="44mm" width="1mm" height="1mm"/><rect x="44mm" y="44mm" width="1mm" height="1mm"/></svg>